Coordinates
version=1
nRows=6
nColumns=63
inDegrees=yes

Units are S.I. units (second, meters, Newtons, ...)
If the header above contains a line with 'inDegrees', this indicates whether rotational values are in degrees (yes) or radians (no).

endheader
time	pelvis_tilt	pelvis_list	pelvis_rotation	pelvis_tx	pelvis_ty	pelvis_tz	hip_flexion_r	hip_adduction_r	hip_rotation_r	knee_angle_r	knee_angle_r_beta	ankle_angle_r	subtalar_angle_r	mtp_angle_r	hip_flexion_l	hip_adduction_l	hip_rotation_l	knee_angle_l	knee_angle_l_beta	ankle_angle_l	subtalar_angle_l	mtp_angle_l	L5_S1_Flex_Ext	L5_S1_Lat_Bending	L5_S1_axial_rotation	L4_L5_Flex_Ext	L4_L5_Lat_Bending	L4_L5_axial_rotation	L3_L4_Flex_Ext	L3_L4_Lat_Bending	L3_L4_axial_rotation	L2_L3_Flex_Ext	L2_L3_Lat_Bending	L2_L3_axial_rotation	L1_L2_Flex_Ext	L1_L2_Lat_Bending	L1_L2_axial_rotation	L1_T12_Flex_Ext	L1_T12_Lat_Bending	L1_T12_axial_rotation	Abs_r3	Abs_r2	Abs_r1	Abs_t1	Abs_t2	neck_flexion	neck_bending	neck_rotation	arm_flex_r	arm_add_r	arm_rot_r	elbow_flex_r	pro_sup_r	wrist_flex_r	wrist_dev_r	arm_flex_l	arm_add_l	arm_rot_l	elbow_flex_l	pro_sup_l	wrist_flex_l	wrist_dev_l
      4.30000000	      0.46765126	     -2.39056585	    114.59559731	      0.25343520	      0.89575142	      0.76198161	     -7.01297947	      3.93133461	     -3.06792990	     11.11028872	      0.19391112	     23.49609415	    -14.39310521	      0.00000000	     -4.10902890	     -3.81953438	      9.50491883	     11.97969848	      0.20908518	     30.66194843	     -0.25582745	      0.00000000	     -0.54226730	      0.16230137	     -1.06727192	     -1.00704461	      0.21586082	     -1.13397641	     -0.89089095	      0.39461955	     -1.13397641	     -0.61975730	      0.39461955	     -0.93386293	     -0.50354942	      0.33096495	     -0.86715843	     -0.30985154	      0.25140482	     -0.80045394	     -3.87336111	      1.83598554	     -5.93584621	      0.00000000	      0.00000000	     -9.08230687	      0.70633453	     -5.15414808	    415.23537137	     -3.73978586	    371.44103568	    149.19775933	     89.35319901	     10.29934349	     25.68479900	     55.66637717	      8.23433354	      0.10308597	    138.58992342	     89.42807854	     26.07025149	     29.47661730
      4.31666667	      0.26767303	     -2.01327356	    114.70139892	      0.25348654	      0.89678412	      0.76292389	     -7.41209189	      3.90593188	     -3.26994372	     11.10651317	      0.19384522	     23.37100192	    -14.38670121	      0.00000000	     -4.43133937	     -3.78087129	      9.73316964	     12.00873902	      0.20959203	     30.57843358	     -0.34991402	      0.00000000	     -0.59049078	      0.14311583	     -1.00857709	     -1.09660043	      0.19034405	     -1.07161316	     -0.97011731	      0.34797182	     -1.07161316	     -0.67487191	      0.34797182	     -0.88250495	     -0.54832974	      0.29184179	     -0.81946889	     -0.33740643	      0.22168642	     -0.75643282	     -4.21781661	      1.61895486	     -5.60940321	      0.00000000	      0.00000000	     -8.98340016	      1.20636450	     -5.39589099	    416.25663387	     -3.85535943	    370.74726876	    148.78426499	     89.29810367	      9.76745330	     26.16169127	     56.28346503	      8.39303782	      0.63947907	    138.58731649	     89.37677237	     26.77450309	     31.12175695
      4.33333333	      0.05340498	     -1.93562688	    114.78062475	      0.25343530	      0.89714661	      0.76310605	     -7.60043131	      3.74306638	     -3.46763403	     11.07169504	      0.19323753	     23.44438979	    -14.20558712	      0.00000000	     -4.56799937	     -3.54881815	     10.53726290	     11.94819629	      0.20853536	     30.32402591	     -1.31409689	      0.00000000	     -0.58273436	      0.11509187	     -1.00322423	     -1.08219598	      0.15307218	     -1.06592574	     -0.95737428	      0.27983436	     -1.06592574	     -0.66600710	      0.27983436	     -0.87782120	     -0.54112713	      0.23469533	     -0.81511969	     -0.33297441	      0.17827730	     -0.75241817	     -4.16241326	      1.30194220	     -5.57963220	      0.00000000	      0.00000000	     -8.83276405	      1.57501899	     -5.20771142	    416.67106305	     -3.69918240	    370.54618818	    148.09406910	     89.23218453	      8.33886132	     25.76563282	     56.84322861	      9.02431977	     -0.25600370	    138.64345099	     89.33852345	     30.55943464	     32.70438679
      4.35000000	     -0.22328454	     -1.89066648	    114.90953036	      0.25355256	      0.89708266	      0.76285742	     -7.81819615	      3.55916163	     -3.60977438	     11.02355636	      0.19239735	     23.62124221	    -14.23392315	      0.00000000	     -4.69791891	     -3.28103869	     11.33902811	     11.91194798	      0.20790271	     30.23811235	     -2.05934881	      0.00000000	     -0.58466731	      0.07781474	     -1.08124938	     -1.08578565	      0.10349360	     -1.14882747	     -0.96054992	      0.18919875	     -1.14882747	     -0.66821626	      0.18919875	     -0.94609321	     -0.54292206	      0.15867981	     -0.87851512	     -0.33407890	      0.12053503	     -0.81093703	     -4.17622010	      0.88025585	     -6.01358467	      0.00000000	      0.00000000	     -8.35740411	      1.49517694	     -4.90601098	    416.75641562	     -3.27045262	    370.45910043	    147.41991824	     89.13848537	      7.28755650	     25.03735785	     57.47684852	      9.35437127	     -1.22138202	    138.71659424	     89.31373753	     32.87525005	     33.08136509
      4.36666667	     -0.47781954	     -2.01030933	    114.88650920	      0.25394874	      0.89653245	      0.76201931	     -7.88664548	      3.34165301	     -3.43766737	     10.98544891	      0.19173225	     23.80385728	    -14.53557774	      0.00000000	     -4.71682102	     -3.00746844	     11.61001671	     11.83690532	      0.20659297	     30.36736413	     -2.13389135	      0.00000000	     -0.56872762	      0.03288419	     -1.18744554	     -1.05618407	      0.04373597	     -1.26166089	     -0.93436261	      0.07995461	     -1.26166089	     -0.64999880	      0.07995461	     -1.03901485	     -0.52812047	      0.06705744	     -0.96479950	     -0.32497096	      0.05093761	     -0.89058415	     -4.06236453	      0.37199251	     -6.60421586	      0.00000000	      0.00000000	     -7.80197132	      1.09038757	     -4.66546219	    416.56042217	     -2.63787145	    370.52136903	    147.14809695	     89.04528071	      6.35458451	     24.66988399	     58.38309530	      9.62098831	     -2.42389114	    138.91427973	     89.28486472	     35.76111390	     33.31246415
      4.38333333	     -0.73446161	     -2.21683874	    114.87254948	      0.25430694	      0.89579676	      0.76111381	     -7.86352198	      3.05252448	     -3.67834079	     10.98926374	      0.19179883	     24.18704907	    -14.28180997	      0.00000000	     -4.66763521	     -2.70129305	     11.85756140	     11.73604414	      0.20483261	     30.53331697	     -1.99331486	      0.00000000	     -0.55325555	     -0.01625540	     -1.33424850	     -1.02745087	     -0.02161968	     -1.41763903	     -0.90894354	     -0.03952337	     -1.41763903	     -0.63231576	     -0.03952337	     -1.16746744	     -0.51375310	     -0.03314800	     -1.08407691	     -0.31613022	     -0.02517961	     -1.00068638	     -3.95184903	     -0.18388428	     -7.42068990	      0.00000000	      0.00000000	     -7.25991504	      0.37811117	     -4.60842446	    416.20779496	     -1.89983277	    370.76500470	    147.27053792	     88.99504160	      5.43123940	     24.18728490	     59.50271363	      9.77056414	     -3.61684995	    139.20454635	     89.24665445	     38.82626049	     33.48841610
